<svg xmlns="http://www.w3.org/2000/svg" viewBox="0 0 512 512" role="img" aria-label="Set game icon">
  <defs>
    <linearGradient id="bg" x1="0" y1="0" x2="1" y2="1">
      <stop offset="0" stop-color="#0b1220"/>
      <stop offset="1" stop-color="#1f2937"/>
    </linearGradient>
    <pattern id="stripeGreen" width="14" height="14" patternUnits="userSpaceOnUse" patternTransform="rotate(35)">
      <rect width="14" height="14" fill="#ffffff"/>
      <rect x="0" y="0" width="6" height="14" fill="#16a34a" opacity="0.45"/>
    </pattern>
    <filter id="shadow" x="-20%" y="-20%" width="140%" height="140%">
      <feDropShadow dx="0" dy="8" stdDeviation="8" flood-color="#020617" flood-opacity="0.45"/>
    </filter>
  </defs>

  <rect x="0" y="0" width="512" height="512" rx="104" fill="url(#bg)"/>

  <g transform="translate(256 256)" filter="url(#shadow)">
    <g transform="translate(-126 0) rotate(-8)">
      <rect x="-68" y="-118" width="136" height="236" rx="20" fill="#f8fafc"/>
      <g fill="none" stroke="#7e22ce" stroke-width="10" stroke-linecap="round">
        <path d="M -26 -52 C -2 -76, 2 -76, 26 -52 C 4 -30, -4 -30, -26 -52 Z"/>
        <path d="M -26 0 C -2 -24, 2 -24, 26 0 C 4 22, -4 22, -26 0 Z"/>
        <path d="M -26 52 C -2 28, 2 28, 26 52 C 4 74, -4 74, -26 52 Z"/>
      </g>
    </g>

    <g transform="translate(0 0)">
      <rect x="-68" y="-118" width="136" height="236" rx="20" fill="#f8fafc"/>
      <g fill="url(#stripeGreen)" stroke="#15803d" stroke-width="8">
        <ellipse cx="0" cy="0" rx="44" ry="22"/>
      </g>
    </g>

    <g transform="translate(126 0) rotate(8)">
      <rect x="-68" y="-118" width="136" height="236" rx="20" fill="#f8fafc"/>
      <g fill="#dc2626" opacity="0.9">
        <rect x="-40" y="-86" width="80" height="26" rx="12"/>
        <rect x="-40" y="-13" width="80" height="26" rx="12"/>
        <rect x="-40" y="60" width="80" height="26" rx="12"/>
      </g>
    </g>
  </g>
</svg>
